<?xml version="1.0" encoding="UTF-8" standalone="no"?>
<!-- Created with Inkscape (http://www.inkscape.org/) -->

<svg
   xmlns:dc="http://purl.org/dc/elements/1.1/"
   xmlns:cc="http://creativecommons.org/ns#"
   xmlns:rdf="http://www.w3.org/1999/02/22-rdf-syntax-ns#"
   xmlns:svg="http://www.w3.org/2000/svg"
   xmlns="http://www.w3.org/2000/svg"
   xmlns:sodipodi="http://sodipodi.sourceforge.net/DTD/sodipodi-0.dtd"
   xmlns:inkscape="http://www.inkscape.org/namespaces/inkscape"
   width="157.65685mm"
   height="90.826218mm"
   viewBox="0 0 157.65685 90.826217"
   version="1.1"
   id="svg5066"
   inkscape:version="0.92.1 r15371"
   sodipodi:docname="singLogo.svg"
   inkscape:export-filename="C:\Users\Pontus\Desktop\bitmap.png"
   inkscape:export-xdpi="96"
   inkscape:export-ydpi="96">
  <defs
     id="defs5060">
    <inkscape:path-effect
       effect="powerstroke"
       id="path-effect6449"
       is_visible="true"
       offset_points="0.010062875,0.39056462"
       sort_points="true"
       interpolator_type="CubicBezierJohan"
       interpolator_beta="0.2"
       start_linecap_type="zerowidth"
       linejoin_type="extrp_arc"
       miter_limit="4"
       end_linecap_type="zerowidth" />
    <inkscape:path-effect
       effect="powerstroke"
       id="path-effect6445"
       is_visible="true"
       offset_points="0,0.13229166"
       sort_points="true"
       interpolator_type="CubicBezierJohan"
       interpolator_beta="0.2"
       start_linecap_type="zerowidth"
       linejoin_type="extrp_arc"
       miter_limit="4"
       end_linecap_type="zerowidth" />
    <inkscape:path-effect
       effect="powerstroke"
       id="path-effect6441"
       is_visible="true"
       offset_points="0,0.13229166"
       sort_points="true"
       interpolator_type="CubicBezierJohan"
       interpolator_beta="0.2"
       start_linecap_type="zerowidth"
       linejoin_type="extrp_arc"
       miter_limit="4"
       end_linecap_type="zerowidth" />
    <inkscape:path-effect
       effect="powerstroke"
       id="path-effect6437"
       is_visible="true"
       offset_points="0,0.13229166"
       sort_points="true"
       interpolator_type="CubicBezierJohan"
       interpolator_beta="0.2"
       start_linecap_type="zerowidth"
       linejoin_type="extrp_arc"
       miter_limit="4"
       end_linecap_type="zerowidth" />
    <inkscape:path-effect
       effect="powerstroke"
       id="path-effect6433"
       is_visible="true"
       offset_points="0.015859997,-0.26367047"
       sort_points="true"
       interpolator_type="CubicBezierJohan"
       interpolator_beta="0.2"
       start_linecap_type="zerowidth"
       linejoin_type="extrp_arc"
       miter_limit="4"
       end_linecap_type="zerowidth" />
    <inkscape:path-effect
       effect="powerstroke"
       id="path-effect6429"
       is_visible="true"
       offset_points="0,0.30873426"
       sort_points="true"
       interpolator_type="CubicBezierJohan"
       interpolator_beta="0.2"
       start_linecap_type="zerowidth"
       linejoin_type="extrp_arc"
       miter_limit="4"
       end_linecap_type="zerowidth" />
    <inkscape:path-effect
       effect="powerstroke"
       id="path-effect6417"
       is_visible="true"
       offset_points="0.022136691,0.36747822"
       sort_points="true"
       interpolator_type="CubicBezierJohan"
       interpolator_beta="0.2"
       start_linecap_type="zerowidth"
       linejoin_type="extrp_arc"
       miter_limit="4"
       end_linecap_type="zerowidth" />
    <inkscape:path-effect
       effect="powerstroke"
       id="path-effect6413"
       is_visible="true"
       offset_points="0,0.27307213"
       sort_points="true"
       interpolator_type="CubicBezierJohan"
       interpolator_beta="0.2"
       start_linecap_type="zerowidth"
       linejoin_type="extrp_arc"
       miter_limit="0"
       end_linecap_type="zerowidth" />
    <inkscape:path-effect
       effect="powerstroke"
       id="path-effect6403"
       is_visible="true"
       offset_points="0,0.13229166"
       sort_points="true"
       interpolator_type="CubicBezierJohan"
       interpolator_beta="0.2"
       start_linecap_type="zerowidth"
       linejoin_type="extrp_arc"
       miter_limit="4"
       end_linecap_type="zerowidth" />
    <inkscape:path-effect
       effect="powerstroke"
       id="path-effect6345"
       is_visible="true"
       offset_points="0,0.13229166"
       sort_points="true"
       interpolator_type="CubicBezierJohan"
       interpolator_beta="0.2"
       start_linecap_type="zerowidth"
       linejoin_type="extrp_arc"
       miter_limit="4"
       end_linecap_type="zerowidth" />
    <inkscape:path-effect
       effect="powerstroke"
       id="path-effect6325"
       is_visible="true"
       offset_points="1,0.13229166"
       sort_points="true"
       interpolator_type="CubicBezierJohan"
       interpolator_beta="0.2"
       start_linecap_type="zerowidth"
       linejoin_type="extrp_arc"
       miter_limit="4"
       end_linecap_type="zerowidth" />
    <marker
       inkscape:stockid="Torso"
       orient="auto"
       refY="0"
       refX="0"
       id="Torso"
       style="overflow:visible"
       inkscape:isstock="true">
      <g
         id="g6074"
         transform="scale(0.7)"
         style="fill:#000000;fill-opacity:1;stroke:none;stroke-opacity:1">
        <path
           id="path6060"
           d="m -4.7792281,-3.239542 c 2.350374,0.3659393 5.30026732,1.9375477 5.03715532,3.62748546 C -0.00518779,2.0778819 -2.2126741,2.6176539 -4.5630471,2.2517169 -6.9134221,1.8857769 -8.521035,0.75201414 -8.257922,-0.93792336 -7.994809,-2.6278615 -7.1296041,-3.6054813 -4.7792281,-3.239542 Z"
           style="fill:#000000;fill-opacity:1;fill-rule:evenodd;stroke:none;stroke-width:1.25;stroke-opacity:1"
           inkscape:connector-curvature="0" />
        <path
           id="path6062"
           d="M 4.4598789,0.08866574 C -2.5564571,-4.378332 5.2248769,-3.9061806 -0.84829578,-8.7197331"
           style="fill:#000000;fill-opacity:1;fill-rule:evenodd;stroke:none;stroke-width:1.00000003pt;stroke-opacity:1"
           inkscape:connector-curvature="0" />
        <path
           id="path6064"
           d="M 4.9298719,0.05752074 C -1.3872731,1.7494689 1.8027579,5.4782079 -4.9448731,7.5462725"
           style="fill:#000000;fill-opacity:1;fill-rule:evenodd;stroke:none;stroke-width:1.00000003pt;stroke-opacity:1"
           inkscape:connector-curvature="0" />
        <rect
           id="rect6066"
           transform="matrix(0.527536,-0.849533,0.887668,0.460484,0,0)"
           y="-1.7408575"
           x="-10.391706"
           height="2.7608147"
           width="2.6366582"
           style="fill:#000000;fill-opacity:1;fill-rule:evenodd;stroke:none;stroke-width:1.00000003pt;stroke-opacity:1" />
        <rect
           id="rect6068"
           transform="matrix(0.671205,-0.741272,0.790802,0.612072,0,0)"
           y="-7.9629307"
           x="4.9587269"
           height="2.8614161"
           width="2.7327356"
           style="fill:#000000;fill-opacity:1;fill-rule:evenodd;stroke:none;stroke-width:1.00000003pt;stroke-opacity:1" />
        <path
           id="path6070"
           transform="matrix(0,-1.109517,1.109517,0,25.96648,19.71619)"
           d="m 16.779951,-28.685045 a 0.60731727,0.60731727 0 1 0 -1.214634,0 0.60731727,0.60731727 0 1 0 1.214634,0 z"
           style="fill:#000000;fill-opacity:1;fill-rule:evenodd;stroke:none;stroke-width:1.00000003pt;stroke-opacity:1"
           inkscape:connector-curvature="0" />
        <path
           id="path6072"
           transform="matrix(0,-1.109517,1.109517,0,26.8245,16.99126)"
           d="m 16.779951,-28.685045 a 0.60731727,0.60731727 0 1 0 -1.214634,0 0.60731727,0.60731727 0 1 0 1.214634,0 z"
           style="fill:#000000;fill-opacity:1;fill-rule:evenodd;stroke:none;stroke-width:1.00000003pt;stroke-opacity:1"
           inkscape:connector-curvature="0" />
      </g>
    </marker>
    <marker
       inkscape:stockid="DiamondL"
       orient="auto"
       refY="0"
       refX="0"
       id="DiamondL"
       style="overflow:visible"
       inkscape:isstock="true">
      <path
         id="path5927"
         d="M 0,-7.0710768 -7.0710894,0 0,7.0710589 7.0710462,0 Z"
         style="fill:#000000;fill-opacity:1;fill-rule:evenodd;stroke:#000000;stroke-width:1.00000003pt;stroke-opacity:1"
         transform="scale(0.8)"
         inkscape:connector-curvature="0" />
    </marker>
    <marker
       inkscape:stockid="RazorWire"
       id="RazorWire"
       refX="0"
       refY="0"
       orient="auto"
       style="overflow:visible"
       inkscape:isstock="true">
      <path
         id="path6080"
         transform="scale(0.8)"
         style="fill:#000000;fill-opacity:1;fill-rule:evenodd;stroke:#000000;stroke-width:0.10000001pt;stroke-opacity:1"
         d="m 0.02272727,-0.74009011 v 1.4375 L -7.7585227,3.0099099 H 10.678977 L 3.4914773,0.69740989 v -1.4375 L 10.741477,-2.8963401 H -7.7272727 Z"
         inkscape:connector-curvature="0" />
    </marker>
    <marker
       inkscape:stockid="Arrow1Lstart"
       orient="auto"
       refY="0"
       refX="0"
       id="Arrow1Lstart"
       style="overflow:visible"
       inkscape:isstock="true">
      <path
         id="path5848"
         d="M 0,0 5,-5 -12.5,0 5,5 Z"
         style="fill:#000000;fill-opacity:1;fill-rule:evenodd;stroke:#000000;stroke-width:1.00000003pt;stroke-opacity:1"
         transform="matrix(0.8,0,0,0.8,10,0)"
         inkscape:connector-curvature="0" />
    </marker>
    <inkscape:path-effect
       effect="spiro"
       id="path-effect5007"
       is_visible="true" />
    <inkscape:path-effect
       effect="spiro"
       id="path-effect502"
       is_visible="true" />
    <inkscape:path-effect
       effect="spiro"
       id="path-effect498"
       is_visible="true" />
    <inkscape:path-effect
       effect="spiro"
       id="path-effect494"
       is_visible="true" />
    <clipPath
       clipPathUnits="userSpaceOnUse"
       id="clipPath74">
      <path
         d="M 0,238.08 H 594.202 V 0 H 0 Z"
         id="path72"
         inkscape:connector-curvature="0" />
    </clipPath>
    <clipPath
       clipPathUnits="userSpaceOnUse"
       id="clipPath62">
      <path
         d="M 0,238.08 H 594.202 V 0 H 0 Z"
         id="path60"
         inkscape:connector-curvature="0" />
    </clipPath>
    <clipPath
       clipPathUnits="userSpaceOnUse"
       id="clipPath26">
      <path
         d="M 0,238.08 H 594.202 V 0 H 0 Z"
         id="path24"
         inkscape:connector-curvature="0" />
    </clipPath>
  </defs>
  <sodipodi:namedview
     id="base"
     pagecolor="#ffffff"
     bordercolor="#666666"
     borderopacity="1.0"
     inkscape:pageopacity="0.0"
     inkscape:pageshadow="2"
     inkscape:zoom="1.4"
     inkscape:cx="312.32791"
     inkscape:cy="151.2171"
     inkscape:document-units="mm"
     inkscape:current-layer="layer1"
     showgrid="false"
     inkscape:window-width="1920"
     inkscape:window-height="1018"
     inkscape:window-x="-8"
     inkscape:window-y="-8"
     inkscape:window-maximized="1"
     inkscape:measure-start="-284.286,325"
     inkscape:measure-end="-308.571,251.429"
     inkscape:object-paths="true"
     inkscape:snap-nodes="false"
     inkscape:snap-others="false"
     inkscape:snap-grids="false"
     inkscape:snap-to-guides="false"
     inkscape:snap-global="true"
     fit-margin-top="0"
     fit-margin-left="0"
     fit-margin-right="0"
     fit-margin-bottom="0" />
  <metadata
     id="metadata5063">
    <rdf:RDF>
      <cc:Work
         rdf:about="">
        <dc:format>image/svg+xml</dc:format>
        <dc:type
           rdf:resource="http://purl.org/dc/dcmitype/StillImage" />
        <dc:title></dc:title>
      </cc:Work>
    </rdf:RDF>
  </metadata>
  <g
     inkscape:label="Layer 1"
     inkscape:groupmode="layer"
     id="layer1"
     transform="translate(-24.848661,4.0371968)">
    <g
       id="g5230"
       transform="translate(-1.5892864,-18.823224)">
      <g
         id="g20"
         transform="matrix(0.35277777,0,0,-0.35277777,29.083781,99.833692)">
        <g
           clip-path="url(#clipPath26)"
           id="g22">
          <g
             transform="translate(141.4424,131.2871)"
             id="g28">
            <path
               inkscape:connector-curvature="0"
               id="path30"
               style="fill:#000000;fill-opacity:1;fill-rule:nonzero;stroke:none"
               d="m 0,0 c -1.023,0 -1.868,0.339 -2.584,1.037 -0.702,0.68 -1.057,1.827 -1.057,3.408 0,0.936 0.231,1.867 0.685,2.766 0.479,0.95 1.088,1.812 1.81,2.564 0.699,0.727 1.489,1.292 2.348,1.678 0.848,0.38 1.663,0.572 2.42,0.572 0.837,0 1.481,-0.267 1.966,-0.817 C 5.938,10.811 6.357,9.915 6.357,7.91 6.357,7.048 6.169,6.112 5.798,5.128 5.428,4.146 4.917,3.276 4.281,2.543 3.629,1.794 2.904,1.164 2.125,0.67 1.415,0.219 0.72,0 0,0 m -13.582,-75.569 c -2.566,0 -4.425,1.148 -5.682,3.511 -1.349,2.536 -2.033,5.68 -2.033,9.348 0,2.03 0.225,4.591 0.669,7.61 0.447,3.041 1.07,6.318 1.853,9.74 0.783,3.428 1.692,6.876 2.699,10.249 1.005,3.361 2.114,6.431 3.297,9.124 1.167,2.66 2.401,4.838 3.666,6.472 1.115,1.44 2.163,2.17 3.114,2.17 0.252,0 0.59,-0.061 0.979,-0.539 0.334,-0.412 0.511,-1.136 0.511,-2.091 0,-0.813 -0.311,-2.538 -1.792,-6.137 -1.257,-3.055 -2.63,-6.503 -4.082,-10.249 -1.479,-3.814 -2.841,-7.895 -4.048,-12.132 -1.227,-4.303 -1.849,-8.476 -1.849,-12.402 0,-4.205 0.502,-6.98 1.534,-8.485 1.099,-1.602 2.785,-2.415 5.012,-2.415 1.476,0 2.992,0.498 4.506,1.482 1.448,0.937 2.964,2.461 4.503,4.532 1.502,2.022 3.058,4.685 4.624,7.915 0.762,1.571 1.532,3.337 2.305,5.283 -0.766,-2.456 -1.614,-4.742 -2.535,-6.837 -1.581,-3.588 -3.345,-6.624 -5.245,-9.021 -1.875,-2.364 -3.874,-4.169 -5.942,-5.366 -2.026,-1.169 -4.067,-1.762 -6.064,-1.762" />
          </g>
          <g
             transform="translate(183.6577,56.708)"
             id="g32">
            <path
               inkscape:connector-curvature="0"
               id="path34"
               style="fill:#000000;fill-opacity:1;fill-rule:nonzero;stroke:none"
               d="m 0,0 c -2.307,0 -3.978,0.825 -5.11,2.524 -1.203,1.803 -1.813,4.169 -1.813,7.036 0,1.581 0.166,3.296 0.494,5.101 0.342,1.882 0.721,3.816 1.126,5.748 0.421,2.013 0.804,4.024 1.139,5.976 0.348,2.027 0.524,4.082 0.524,6.109 0,3.332 -0.491,5.606 -1.502,6.953 -1.064,1.415 -2.418,2.132 -4.025,2.132 -2.637,0 -5.293,-1.562 -7.895,-4.644 -2.446,-2.897 -4.847,-6.537 -7.135,-10.816 -2.273,-4.254 -4.437,-8.776 -6.432,-13.443 -1.881,-4.398 -3.526,-8.368 -4.896,-11.816 -0.795,0.087 -1.554,0.334 -2.304,0.748 -0.844,0.467 -1.502,1.138 -2.004,2.044 0.069,0.411 0.317,1.55 1.183,4.648 0.832,2.974 1.749,6.54 2.725,10.596 0.979,4.066 1.915,8.382 2.782,12.83 0.853,4.385 1.297,8.431 1.319,12.029 0.395,0.592 0.99,1.2 1.769,1.813 0.808,0.633 1.606,0.941 2.439,0.941 0.615,0 2.055,0 2.055,-3.29 0,-1.699 -0.337,-4.586 -1.004,-8.58 -0.671,-4.022 -1.543,-8.389 -2.592,-12.977 l 1.885,-0.638 c 1.488,3.257 3.156,6.655 4.956,10.1 1.781,3.408 3.698,6.53 5.695,9.28 1.976,2.721 4.031,4.962 6.106,6.661 1.959,1.602 3.935,2.414 5.875,2.414 1.214,0 2.235,-0.335 3.119,-1.026 0.927,-0.723 1.706,-1.741 2.315,-3.023 0.64,-1.347 1.128,-2.877 1.45,-4.545 0.326,-1.689 0.491,-3.457 0.491,-5.256 0,-2.446 -0.24,-4.819 -0.714,-7.052 C 1.529,26.265 1,24.063 0.45,22.031 -0.122,19.92 -0.657,17.829 -1.142,15.816 -1.648,13.716 -1.905,11.611 -1.905,9.56 -1.905,7.016 -1.533,5.237 -0.767,4.125 0.053,2.926 1.18,2.29 2.49,2.29 c 1.718,0 3.411,0.885 5.033,2.629 1.483,1.593 2.941,3.686 4.332,6.222 1.372,2.499 2.702,5.308 3.953,8.35 0.744,1.806 1.462,3.645 2.148,5.497 C 16.948,21.787 15.874,18.787 14.75,16.044 13.385,12.71 11.892,9.797 10.312,7.385 8.759,5.018 7.088,3.16 5.345,1.865 3.657,0.61 1.909,0 0,0" />
          </g>
          <g
             transform="translate(217.9282,47.7705)"
             id="g36">
            <path
               inkscape:connector-curvature="0"
               id="path38"
               style="fill:#000000;fill-opacity:1;fill-rule:nonzero;stroke:none"
               d="m 0,0 c -2.293,-1.672 -4.499,-3.377 -6.554,-5.068 -2.113,-1.735 -4.007,-3.613 -5.626,-5.581 -1.632,-1.982 -2.972,-4.08 -3.982,-6.234 -1.039,-2.211 -1.566,-4.575 -1.566,-7.025 0,-1.927 0.272,-3.442 0.831,-4.632 0.831,-1.771 2.028,-2.143 2.886,-2.143 1.035,0 2.154,0.608 3.419,1.856 1.137,1.129 2.322,2.822 3.625,5.179 1.257,2.278 2.628,5.316 4.074,9.029 1.441,3.71 2.935,8.264 4.444,13.536 l 0.8,2.797 z m -13.672,-33.963 c -1.379,0 -2.619,0.622 -3.789,1.902 -1.178,1.289 -1.775,3.533 -1.775,6.668 0,3.127 0.669,6.059 1.989,8.712 1.348,2.71 3.102,5.241 5.215,7.521 2.131,2.306 4.489,4.462 7.007,6.405 2.584,1.995 5.089,3.877 7.447,5.594 l 0.284,0.206 0.092,0.338 c 1.055,3.846 2.069,8.056 3.014,12.514 0.946,4.473 1.881,9.456 2.781,14.809 L 6.703,31.3 C 3.878,25.344 0.89,20.327 -2.18,16.39 c -2.917,-3.742 -5.831,-5.638 -8.662,-5.638 -2.327,0 -4.09,1.251 -5.389,3.824 -1.394,2.759 -2.1,6.521 -2.1,11.181 0,5.567 0.968,10.944 2.878,15.98 1.917,5.054 4.382,9.547 7.326,13.356 2.939,3.801 6.134,6.864 9.497,9.101 3.286,2.188 6.412,3.298 9.292,3.298 1.881,0 3.213,-0.417 3.956,-1.239 0.777,-0.863 1.156,-1.858 1.156,-3.041 0,-0.695 -0.105,-1.236 -0.311,-1.613 -0.881,0.967 -2.3,1.788 -4.574,1.788 -3.191,0 -6.296,-1.396 -9.23,-4.148 -2.82,-2.648 -5.341,-5.978 -7.492,-9.901 -2.139,-3.898 -3.862,-8.103 -5.122,-12.498 -1.264,-4.416 -1.906,-8.423 -1.906,-11.908 0,-2.832 0.389,-4.953 1.189,-6.486 1.118,-2.148 2.669,-2.599 3.773,-2.599 1.313,0 2.709,0.644 4.269,1.97 1.409,1.199 2.89,2.837 4.4,4.869 1.481,1.994 3.008,4.359 4.536,7.029 1.512,2.648 3.008,5.5 4.446,8.477 l 0.065,0.134 1.381,8.892 c 0.074,0.755 0.252,1.577 0.534,2.502 0.278,0.915 0.632,1.767 1.052,2.533 0.395,0.72 0.895,1.352 1.487,1.88 0.494,0.439 1.055,0.654 1.711,0.654 0.393,0 0.848,-0.073 1.359,-0.216 -0.058,-1.303 -0.258,-3.23 -0.596,-5.746 C 16.335,45.786 15.748,42.193 14.999,38.149 14.252,34.125 13.322,29.67 12.234,24.907 11.147,20.157 9.95,15.253 8.675,10.333 l -0.7,-2.705 2.257,1.646 c 1.851,1.349 3.739,2.994 5.612,4.89 1.882,1.903 3.672,4.087 5.32,6.49 1.642,2.394 3.171,5.047 4.546,7.884 0.682,1.408 1.302,2.875 1.857,4.389 -0.754,-2.32 -1.671,-4.539 -2.742,-6.632 C 23.199,23.116 21.4,20.193 19.48,17.608 17.562,15.029 15.546,12.742 13.487,10.812 11.423,8.879 9.519,7.299 7.826,6.116 L 7.534,5.912 7.437,5.568 C 5.864,0.004 4.213,-5.279 2.53,-10.132 c -1.676,-4.832 -3.447,-9.093 -5.265,-12.662 -1.798,-3.528 -3.667,-6.338 -5.555,-8.35 -1.758,-1.871 -3.569,-2.819 -5.382,-2.819" />
          </g>
          <g
             transform="translate(271.7124,113.6323)"
             id="g40">
            <path
               inkscape:connector-curvature="0"
               id="path42"
               style="fill:#000000;fill-opacity:1;fill-rule:nonzero;stroke:none"
               d="m 0,0 c -1.037,0 -2.082,-0.55 -3.104,-1.634 -0.902,-0.957 -1.725,-2.241 -2.446,-3.818 -0.704,-1.541 -1.298,-3.384 -1.764,-5.478 -0.467,-2.099 -0.703,-4.421 -0.703,-6.9 0,-3.246 0.33,-6.559 0.981,-9.847 0.658,-3.338 1.669,-6.191 3.003,-8.477 l 0.966,-1.654 0.805,1.738 c 1.901,4.1 3.5,8.454 4.754,12.939 1.263,4.524 1.904,8.86 1.904,12.891 0,3.355 -0.342,5.778 -1.044,7.408 C 2.54,-0.952 1.412,0 0,0 m -19.807,-58.905 c -2.845,0 -4.807,1.241 -5.998,3.795 -1.289,2.767 -1.943,6.206 -1.943,10.22 0,3.32 0.374,6.833 1.112,10.442 0.738,3.609 1.711,6.968 2.894,9.983 1.164,2.971 2.525,5.469 4.045,7.423 1.379,1.77 2.713,2.667 3.965,2.667 0.265,0 0.579,-0.071 0.93,-0.209 -0.577,-0.998 -1.21,-2.386 -1.918,-4.203 -0.951,-2.437 -1.857,-5.189 -2.692,-8.179 -0.831,-2.971 -1.542,-5.996 -2.113,-8.992 -0.575,-3.016 -0.866,-5.633 -0.866,-7.777 0,-3.488 0.384,-5.978 1.175,-7.613 1.113,-2.308 2.735,-2.792 3.899,-2.792 1.901,0 3.997,1.325 6.408,4.05 2.229,2.522 4.443,5.775 6.579,9.669 l 0.335,0.61 -0.455,0.525 c -2.079,2.402 -3.684,5.629 -4.772,9.593 -1.103,4.02 -1.662,8.177 -1.662,12.358 0,2.679 0.241,5.251 0.717,7.643 0.471,2.38 1.167,4.518 2.067,6.354 0.878,1.793 1.956,3.239 3.202,4.299 1.183,1.005 2.526,1.494 4.106,1.494 2.68,0 4.417,-0.991 5.309,-3.031 0.996,-2.283 1.501,-5.202 1.501,-8.674 0,-4.175 -0.712,-8.888 -2.115,-14.008 -1.413,-5.149 -3.224,-10.179 -5.38,-14.95 l -0.318,-0.703 0.6,-0.486 c 1.534,-1.243 3.193,-1.873 4.931,-1.873 1.017,0 2.139,0.214 3.332,0.635 1.199,0.422 2.426,1.145 3.642,2.152 1.196,0.985 2.344,2.275 3.414,3.835 0.383,0.558 0.745,1.173 1.083,1.843 -0.502,-1.242 -1.062,-2.344 -1.673,-3.294 -1.076,-1.674 -2.238,-3.076 -3.451,-4.17 C 8.899,-41.334 7.676,-42.101 6.45,-42.547 5.207,-43 4.027,-43.23 2.943,-43.23 c -1.846,0 -3.437,0.481 -4.862,1.472 l -0.924,0.641 -0.529,-0.992 c -2.59,-4.853 -5.398,-8.948 -8.344,-12.171 -2.808,-3.069 -5.53,-4.625 -8.091,-4.625" />
          </g>
          <g
             transform="translate(290.8398,52.2529)"
             id="g44">
            <path
               inkscape:connector-curvature="0"
               id="path46"
               style="fill:#000000;fill-opacity:1;fill-rule:nonzero;stroke:none"
               d="m 0,0 c -2.087,0 -3.781,0.968 -5.181,2.957 -1.457,2.074 -2.195,5.351 -2.195,9.737 0,3.202 0.43,6.678 1.276,10.335 0.855,3.681 2.039,7.435 3.52,11.159 1.482,3.728 3.25,7.346 5.253,10.752 1.996,3.396 4.149,6.427 6.399,9.007 2.225,2.553 4.571,4.628 6.974,6.168 2.316,1.483 4.648,2.235 6.93,2.235 2.661,0 4.821,-0.995 6.603,-3.04 1.789,-2.058 2.696,-4.863 2.696,-8.335 0,-2.422 -0.423,-4.114 -1.225,-4.894 -0.576,-0.56 -1.276,-0.921 -2.116,-1.09 0.24,1.587 0.361,3.151 0.361,4.663 0,2.662 -0.449,4.995 -1.335,6.933 -0.991,2.164 -2.794,3.308 -5.211,3.308 -2.045,0 -4.09,-0.858 -6.08,-2.548 C 14.796,55.751 12.944,53.601 11.167,50.955 9.408,48.335 7.744,45.317 6.221,41.985 4.705,38.673 3.341,35.227 2.165,31.742 0.985,28.252 0.06,24.766 -0.586,21.38 c -0.65,-3.4 -0.98,-6.488 -0.98,-9.181 0,-4.933 1.365,-7.434 4.056,-7.434 2.066,0 4.242,1.414 6.655,4.321 2.214,2.673 4.454,5.937 6.658,9.704 2.185,3.733 4.311,7.726 6.318,11.866 1.818,3.753 3.38,7.045 4.651,9.802 0.11,-0.044 0.226,-0.092 0.348,-0.143 0.467,-0.196 0.924,-0.442 1.355,-0.731 0.395,-0.267 0.736,-0.583 1.011,-0.938 0.201,-0.26 0.299,-0.601 0.299,-1.037 0,-0.862 -0.32,-2.129 -0.951,-3.764 L 26.57,27.987 c -0.826,-2.133 -1.596,-4.377 -2.288,-6.671 -0.704,-2.34 -1.061,-4.575 -1.061,-6.641 0,-1.769 0.326,-3.526 0.97,-5.222 0.949,-2.511 2.633,-3.038 3.878,-3.038 2.385,0 5.272,2.231 8.827,6.822 2.822,3.649 5.694,8.94 8.558,15.765 C 44.45,25.754 43.29,22.727 41.991,19.968 40.293,16.363 38.444,13.231 36.496,10.658 34.573,8.121 32.577,6.143 30.563,4.777 28.627,3.469 26.721,2.805 24.899,2.805 c -2.418,0 -4.148,1.016 -5.29,3.108 -1.233,2.257 -1.858,4.761 -1.858,7.441 0,1.27 0.111,2.839 0.332,4.666 l -1.88,0.582 C 12.931,12.313 9.962,7.543 7.379,4.422 4.947,1.488 2.465,0 0,0" />
          </g>
          <g
             transform="translate(369.8408,165.4424)"
             id="g48">
            <path
               inkscape:connector-curvature="0"
               id="path50"
               style="fill:#000000;fill-opacity:1;fill-rule:nonzero;stroke:none"
               d="m 0,0 c -0.987,0 -1.93,-0.974 -3.358,-3.474 -1.142,-1.998 -2.473,-4.751 -3.955,-8.185 -1.483,-3.438 -3.107,-7.506 -4.829,-12.09 -1.728,-4.598 -3.448,-9.555 -5.109,-14.73 -1.655,-5.157 -3.24,-10.586 -4.712,-16.137 -1.474,-5.567 -2.754,-11.055 -3.805,-16.313 l 1.812,-0.753 c 3.254,4.856 6.477,10.674 9.581,17.293 3.093,6.597 5.865,13.26 8.241,19.8 2.372,6.531 4.305,12.669 5.743,18.241 1.469,5.692 2.183,9.849 2.183,12.708 0,1.321 -0.128,2.135 -0.414,2.639 C 1.234,-0.75 0.804,0 0,0 m 23.994,-6.6 c -1.08,0 -2.251,-1.004 -4.743,-5.998 -1.82,-3.649 -3.834,-8.514 -5.987,-14.462 -2.15,-5.938 -4.347,-12.816 -6.529,-20.442 -2.186,-7.634 -4.096,-15.516 -5.678,-23.427 l 1.811,-0.753 c 3.256,4.858 6.326,10.314 9.127,16.216 2.797,5.898 5.247,11.786 7.282,17.501 2.041,5.729 3.651,11.123 4.786,16.032 1.143,4.943 1.723,8.877 1.723,11.693 0,1.321 -0.128,2.135 -0.414,2.639 C 25.23,-7.352 24.801,-6.6 23.994,-6.6 M 1.244,-110.385 c -2.835,0 -4.812,1.369 -6.044,4.186 -1.334,3.044 -2.01,7.016 -2.01,11.809 v 1.815 c 0,0.622 0.036,1.251 0.106,1.867 l -1.922,0.485 c -2.593,-6.478 -5.359,-11.553 -8.223,-15.087 -2.73,-3.368 -5.667,-5.075 -8.73,-5.075 -2.835,0 -4.813,1.369 -6.045,4.186 -1.334,3.044 -2.01,7.016 -2.01,11.809 0,5.199 0.698,11.492 2.076,18.705 1.384,7.255 3.168,14.918 5.302,22.778 2.133,7.855 4.582,15.743 7.278,23.444 2.693,7.684 5.37,14.687 7.957,20.814 2.579,6.097 4.996,11.082 7.186,14.816 2.9,4.947 4.175,5.198 4.4,5.198 0.284,0 0.59,-0.503 0.708,-0.719 C 1.686,9.896 2.055,8.915 2.373,7.733 2.695,6.53 2.933,5.221 3.08,3.844 3.227,2.45 3.301,1.208 3.301,0.155 c 0,-2.343 -0.357,-5.446 -1.059,-9.222 -0.71,-3.805 -1.73,-8.02 -3.034,-12.528 -1.307,-4.518 -2.898,-9.354 -4.731,-14.372 -1.835,-5.019 -3.882,-10.02 -6.083,-14.862 -2.202,-4.838 -4.604,-9.5 -7.141,-13.853 -2.526,-4.332 -5.161,-8.173 -7.831,-11.418 l -0.175,-0.212 -0.041,-0.272 c -0.454,-2.975 -0.818,-5.909 -1.083,-8.72 -0.266,-2.809 -0.4,-5.533 -0.4,-8.095 0,-3.39 0,-13.705 5.98,-13.705 1.613,0 3.235,0.757 4.818,2.251 1.451,1.374 2.876,3.191 4.239,5.401 1.342,2.181 2.639,4.723 3.859,7.555 1.214,2.823 2.328,5.765 3.313,8.743 l 0.03,0.09 0.012,0.094 c 0.746,5.664 1.882,11.85 3.379,18.387 1.495,6.545 3.241,13.157 5.189,19.653 1.946,6.495 4.034,12.833 6.207,18.84 2.171,5.999 4.331,11.387 6.423,16.016 2.079,4.603 4.035,8.334 5.813,11.089 2.306,3.569 3.382,3.75 3.575,3.75 0.283,0 0.589,-0.503 0.708,-0.719 0.411,-0.747 0.78,-1.727 1.099,-2.913 0.323,-1.203 0.561,-2.511 0.707,-3.888 0.147,-1.395 0.221,-2.637 0.221,-3.69 0,-3.54 -0.64,-8.299 -1.901,-14.144 -1.272,-5.881 -3.106,-12.166 -5.453,-18.682 -2.35,-6.526 -5.228,-13.149 -8.553,-19.686 C 8.083,-65.455 4.336,-71.22 0.252,-76.092 l -0.18,-0.215 -0.042,-0.277 c -0.457,-2.992 -0.821,-5.926 -1.083,-8.72 -0.265,-2.809 -0.4,-5.533 -0.4,-8.095 0,-3.39 0,-13.705 5.979,-13.705 1.783,0 3.546,0.877 5.243,2.61 1.559,1.591 3.078,3.687 4.513,6.23 1.411,2.504 2.782,5.403 4.075,8.616 1.104,2.744 2.107,5.519 2.991,8.27 l 0.008,-0.007 c -2.919,-9.017 -6.12,-16.204 -9.515,-21.365 -3.336,-5.066 -6.902,-7.635 -10.597,-7.635" />
          </g>
          <g
             transform="translate(393.9473,52.2529)"
             id="g52">
            <path
               inkscape:connector-curvature="0"
               id="path54"
               style="fill:#000000;fill-opacity:1;fill-rule:nonzero;stroke:none"
               d="m 0,0 c -2.087,0 -3.781,0.967 -5.18,2.957 -1.457,2.073 -2.195,5.349 -2.195,9.737 0,3.204 0.429,6.681 1.275,10.335 0.857,3.687 2.041,7.441 3.52,11.159 1.482,3.728 3.25,7.346 5.253,10.752 2,3.4 4.153,6.431 6.4,9.007 2.226,2.554 4.572,4.629 6.973,6.168 2.316,1.483 4.648,2.235 6.93,2.235 2.662,0 4.821,-0.995 6.603,-3.04 1.789,-2.058 2.696,-4.863 2.696,-8.335 0,-2.423 -0.423,-4.115 -1.224,-4.894 -0.577,-0.56 -1.276,-0.921 -2.117,-1.09 0.241,1.59 0.362,3.153 0.362,4.663 0,2.661 -0.449,4.993 -1.336,6.933 -0.99,2.164 -2.792,3.308 -5.21,3.308 -2.046,0 -4.091,-0.858 -6.08,-2.549 C 14.797,55.752 12.945,53.602 11.167,50.955 9.407,48.333 7.743,45.315 6.222,41.985 4.706,38.676 3.342,35.229 2.165,31.742 0.985,28.252 0.06,24.766 -0.586,21.38 c -0.649,-3.397 -0.979,-6.485 -0.979,-9.181 0,-4.933 1.364,-7.434 4.055,-7.434 2.067,0 4.243,1.414 6.656,4.321 2.21,2.668 4.451,5.933 6.658,9.704 2.186,3.736 4.312,7.729 6.317,11.866 1.859,3.837 3.387,7.055 4.651,9.802 0.11,-0.044 0.226,-0.092 0.348,-0.143 0.47,-0.197 0.926,-0.443 1.354,-0.731 0.395,-0.266 0.737,-0.582 1.012,-0.938 0.201,-0.26 0.299,-0.6 0.299,-1.037 0,-0.594 -0.165,-1.73 -0.951,-3.764 L 26.57,27.988 c -0.826,-2.134 -1.596,-4.378 -2.288,-6.672 -0.704,-2.34 -1.061,-4.575 -1.061,-6.641 0,-1.769 0.326,-3.526 0.97,-5.222 0.949,-2.511 2.633,-3.038 3.878,-3.038 2.386,0 5.273,2.231 8.827,6.822 2.822,3.647 5.693,8.939 8.558,15.764 C 44.45,25.754 43.29,22.726 41.991,19.968 40.294,16.365 38.445,13.232 36.497,10.658 34.573,8.121 32.577,6.142 30.563,4.777 28.627,3.469 26.722,2.805 24.9,2.805 c -2.419,0 -4.149,1.016 -5.291,3.108 -1.233,2.257 -1.858,4.761 -1.858,7.441 0,1.272 0.112,2.842 0.333,4.666 l -1.88,0.582 C 12.931,12.313 9.962,7.542 7.379,4.422 4.947,1.488 2.465,0 0,0" />
          </g>
        </g>
      </g>
      <g
         id="g5251"
         transform="translate(2.1166667)">
        <g
           id="g5285"
           transform="translate(-4.7624999,-1.0583333)">
          <g
             id="g68"
             transform="matrix(0.35277777,0,0,-0.35277777,29.083781,99.833692)">
            <g
               clip-path="url(#clipPath74)"
               id="g70">
              <g
                 transform="translate(178.0831,198.5731)"
                 id="g76">
                <path
                   sodipodi:nodetypes="ccccccccccccccccccccccccccccccccccccccccccccccccccc"
                   inkscape:connector-curvature="0"
                   id="path78"
                   style="fill:#000000;fill-opacity:1;fill-rule:nonzero;stroke:none;stroke-width:0.60000002;stroke-miterlimit:4;stroke-dasharray:none"
                   d="m 0,0 c 7.745,14.674 -8.095,24.956 -19.708,29.892 -12.836,5.455 -26.982,8.548 -40.892,9.359 -14.859,0.866 -29.869,-0.529 -44.484,-3.217 -14.046,-2.583 -28.069,-6.378 -41.111,-12.268 -5.613,-2.535 -11.01,-5.583 -16.246,-8.819 -3.873,-2.394 -7.673,-5.147 -10.592,-8.68 -4.21,-5.093 -5.86,-11.781 -4.678,-18.256 1.294,-7.087 5.327,-13.459 9.696,-19.049 5.671,-7.255 12.373,-13.682 19.212,-19.82 15.714,-14.106 32.66,-26.771 48.331,-40.928 7.16,-6.469 14.134,-13.25 20.122,-20.837 4.828,-6.118 9.208,-12.961 11.174,-20.583 1.833,-7.103 1.084,-14.536 -2.484,-20.987 -3.135,-5.669 -7.925,-10.366 -12.986,-14.326 -1.55,-1.213 -3.15,-2.361 -4.789,-3.45 -0.406,-0.27 -0.815,-0.536 -1.225,-0.798 -0.632,-0.404 -1.84,-0.654 -0.114,-0.128 1.978,0.602 0.137,0.087 -0.555,-0.277 -0.57,-0.301 -1.144,-0.595 -1.721,-0.884 -4.018,-2.01 -8.185,-3.724 -12.444,-5.153 -8.502,-2.855 -17.422,-4.557 -26.392,-4.832 -7.697,-0.236 -15.686,0.715 -22.55,4.431 -5.009,2.711 -9.192,6.891 -11.492,12.14 -3.219,7.35 -1.077,15.383 2.039,22.362 18.12733,26.78879 43.23793,36.0096 71.677,48.751 4.039247,8.52555 -3.799502,-1.53111 0,0 -23.09607,-9.69435 -46.49352,-19.90423 -64.247,-35.169 -7.995,-6.978 -14.442,-15.644 -16.597,-26.235 -3.11,-15.286 8.935,-26.233 22.91,-28.935 8.827,-1.706 18.199,-0.883 26.954,0.875 8.427,1.692 16.618,4.534 24.305,8.374 12.258,6.123 25.985,14.057 33.032,26.299 8.46,14.695 0.733,30.56 -8.821,42.513 -12.858,16.09 -29.502,29.015 -45.321,42.026 -15.131,12.445 -31.468,24.877 -43.228,40.742 -4.183,5.644 -7.949,12.145 -8.695,19.261 -0.733,7 1.98,13.674 6.971,18.559 1.765,1.727 3.718,3.259 5.75,4.657 0.577,0.397 1.162,0.781 1.752,1.157 0.309,0.196 0.623,0.384 0.931,0.581 1.739,1.11 -4.217,-2.334 -2.337,-1.349 1.569,0.823 3.132,1.647 4.734,2.406 6.171,2.926 12.606,5.293 19.126,7.312 14.68,4.547 29.94,7.425 45.255,8.666 14.255,1.154 28.523,0.701 42.523,-2.352 7.311,-1.594 14.551,-3.712 21.445,-6.639 6.086,-2.584 12.28,-5.86 16.836,-10.755 5.076,-5.454 6.3842,-12.4411 2.8712,-19.0971 0.319,0.604 2.4338,1.3241 3.0488,1.6801 C -2.315,-1.377 -0.389,-0.737 0,0" />
              </g>
            </g>
          </g>
          <g
             id="g5270">
            <g
               id="g5257">
              <path
                 d="m 91.907537,29.781522 c -0.38515,0.6024 -0.76712,1.22606 -1.12674,1.56833 -0.31697,0.30162 -0.58601,0.43006 -0.79946,0.38188 -0.0566,-0.0128 -0.1296,-0.0451 -0.19477,-0.18365 -0.0559,-0.11938 -0.0621,-0.30841 -0.0179,-0.54591"
                 style="fill:#000000;fill-opacity:1;fill-rule:nonzero;stroke:none;stroke-width:0.2411768"
                 id="path30-6"
                 inkscape:connector-curvature="0"
                 sodipodi:nodetypes="ccscc" />
              <path
                 style="fill:none;stroke:#000000;stroke-width:0.06319245px;stroke-linecap:butt;stroke-linejoin:miter;stroke-opacity:1"
                 d="m 89.796787,31.017172 0.0281,-0.0526"
                 id="path492"
                 inkscape:connector-curvature="0"
                 inkscape:path-effect="#path-effect494"
                 inkscape:original-d="m 89.796787,31.017172 c 0.004,-0.018 0.0225,-0.0331 0.0281,-0.0526"
                 sodipodi:nodetypes="cc" />
              <path
                 style="fill:none;stroke:#000000;stroke-width:0.29274422px;stroke-linecap:butt;stroke-linejoin:miter;stroke-opacity:1"
                 d="m 89.891477,31.064352 c 0.08978,-0.07033 0.184544,-0.134295 0.28335,-0.19125 0.117556,-0.06776 0.243,-0.127223 0.33823,-0.22388 0.04634,-0.04704 0.08449,-0.102129 0.11221,-0.16206"
                 id="path496"
                 inkscape:connector-curvature="0"
                 inkscape:path-effect="#path-effect498"
                 inkscape:original-d="m 89.891477,31.064352 c 0.0579,-0.0812 0.1919,-0.13561 0.28335,-0.19125 0.11454,-0.0697 0.22741,-0.1477 0.33823,-0.22388 0.0414,-0.0285 0.0682,-0.13603 0.11221,-0.16206" />
              <path
                 style="fill:none;stroke:#000000;stroke-width:0.26458332px;stroke-linecap:butt;stroke-linejoin:miter;stroke-opacity:1"
                 d="m 89.861957,30.859442 0.0962,0.0593"
                 id="path500"
                 inkscape:connector-curvature="0"
                 inkscape:path-effect="#path-effect502"
                 inkscape:original-d="m 89.861957,30.859442 c 0.0252,0.0231 0.0686,0.0389 0.0962,0.0593" />
            </g>
            <path
               style="fill:#ffffff;stroke:#fffcff;stroke-width:0.0894855;stroke-linecap:butt;stroke-linejoin:miter;stroke-miterlimit:4;stroke-dasharray:none;stroke-opacity:1"
               d="m 89.693477,31.323252 c 0.0048,-0.120977 0.02566,-0.241306 0.0618,-0.35686 0.02518,-0.08051 0.05776,-0.158703 0.0972,-0.23327"
               id="path5005"
               inkscape:connector-curvature="0"
               inkscape:path-effect="#path-effect5007"
               inkscape:original-d="m 89.693477,31.323252 c -0.006,-0.097 0.0269,-0.24604 0.0618,-0.35686 0.0312,-0.0991 0.0728,-0.158 0.0972,-0.23327"
               sodipodi:nodetypes="csc" />
          </g>
          <path
             sodipodi:nodetypes="csc"
             inkscape:connector-curvature="0"
             id="path5050"
             d="m 38.806984,74.871242 c 0,0 3.210703,-2.67671 6.750103,-4.54129 3.33249,-1.75558 13.82011,-6.55582 13.82011,-6.55582"
             style="fill:none;stroke:#000000;stroke-width:0.26458332px;stroke-linecap:butt;stroke-linejoin:miter;stroke-opacity:1" />
        </g>
      </g>
    </g>
    <path
       style="fill:none;stroke:#000000;stroke-width:0.66500002;stroke-linecap:square;stroke-linejoin:miter;stroke-miterlimit:4;stroke-dasharray:none;stroke-opacity:1;paint-order:markers stroke fill"
       d="M 27.878694,65.318933 C 31.905382,53.648227 43.329284,49.400588 54.074489,44.315922"
       id="path5846"
       inkscape:connector-curvature="0"
       sodipodi:nodetypes="cc" />
    <path
       style="fill:#000000;fill-rule:nonzero;stroke:none;stroke-width:0.26458332px;stroke-linecap:butt;stroke-linejoin:miter;stroke-opacity:1"
       d="m 54.07056,44.258132 c 0.03289,-0.01546 0.297863,0.291388 0.330754,0.275927 1.632947,-0.770803 4.624293,-2.309217 7.172977,-4.293935 2.84339,-2.214213 4.477822,-4.416207 5.665181,-6.254526 -1.170903,1.812842 -3.00504,3.95006 -5.898744,5.935323 -2.615535,1.794422 -5.653984,3.142594 -7.272851,3.906751 -0.03274,0.01546 0.03543,0.415004 0.0027,0.43046 z"
       id="path6447"
       inkscape:connector-curvature="0"
       inkscape:path-effect="#path-effect6449"
       inkscape:original-d="m 54.07056,44.258132 c 5.443981,-2.55897 9.864913,-5.157143 13.168912,-10.272534"
       sodipodi:nodetypes="cc" />
    <text
       xml:space="preserve"
       style="font-style:normal;font-variant:normal;font-weight:normal;font-stretch:normal;font-size:11.28888893px;font-family:sans-serif;-inkscape-font-specification:'sans-serif, Normal';font-variant-ligatures:normal;font-variant-caps:normal;font-variant-numeric:normal;font-feature-settings:normal;text-align:center;letter-spacing:2.28070831px;word-spacing:0px;writing-mode:lr-tb;text-anchor:middle;fill:#000000;fill-opacity:1;stroke:none;stroke-width:0.26458332"
       x="103.56375"
       y="86.551956"
       id="text272"><tspan
         sodipodi:role="line"
         x="104.63531"
         y="86.551956"
         id="tspan270"
         style="stroke-width:0.26458332"><tspan
           x="103.56375"
           y="86.551956"
           style="font-style:normal;font-variant:normal;font-weight:normal;font-stretch:normal;font-size:11.28888893px;font-family:'EB Garamond';-inkscape-font-specification:'EB Garamond';text-align:center;letter-spacing:2.14312506px;text-anchor:middle;stroke-width:0.26458332"
           id="tspan268">BRÖLLOP &amp; FEST</tspan></tspan></text>
  </g>
</svg>
